<?xml version="1.0" encoding="iso-8859-1"?>
<!-- Generator: Adobe Illustrator 19.0.0, SVG Export Plug-In . SVG Version: 6.00 Build 0)  -->
<svg version="1.1" id="Layer_1" xmlns="http://www.w3.org/2000/svg" xmlns:xlink="http://www.w3.org/1999/xlink" x="0px" y="0px"
	 viewBox="0 0 482.485 482.485" style="enable-background:new 0 0 482.485 482.485;" xml:space="preserve">
<rect y="435.2" style="fill:#64798A;" width="443.934" height="36.744"/>
<g>
	<polygon style="fill:#3A556A;" points="24.094,482.184 419.84,482.184 443.934,471.944 0,471.944 	"/>
	<path style="fill:#3A556A;" d="M394.541,411.106H49.393V211.125h243.953v-24.094H35.539c-5.421,0-10.24,4.216-10.24,9.638V435.2
		h393.336V284.009h-24.094V411.106z"/>
</g>
<path style="fill:#EBF0F3;" d="M49.393,411.106h345.148V284.612h-74.089c-15.059,0-27.106-12.047-27.106-27.106v-46.381H49.393
	V411.106z"/>
<rect x="179.501" y="449.656" style="fill:#3A556A;" width="84.932" height="7.831"/>
<path style="fill:#44C4A1;" d="M186.127,274.372c9.638-9.638,21.685-14.456,33.732-14.456v12.047l39.755-17.468
	c-26.504-17.468-62.042-15.059-85.534,8.433c-23.492,23.492-25.901,59.031-8.433,85.534l12.047-12.047
	C166.852,315.934,169.261,290.635,186.127,274.372z"/>
<path style="fill:#E56353;" d="M257.807,346.052c-9.638,9.638-21.685,14.456-33.732,14.456v-12.047l-39.755,17.468
	c26.504,17.468,62.042,15.059,85.534-8.433c23.492-23.492,25.901-59.031,8.433-85.534l-12.047,12.047
	C277.082,304.489,274.673,329.788,257.807,346.052z"/>
<path style="fill:#2F4859;" d="M408.395,186.428H293.346v24.094h101.195v73.487h24.094v-87.341
	C418.635,191.247,414.419,186.428,408.395,186.428z"/>
<path style="fill:#E1E6E9;" d="M320.452,284.009h74.089v-72.885H293.346v46.381C293.346,271.962,305.393,284.009,320.452,284.009z"
	/>
<path style="fill:#64798A;" d="M472.245,0.301H320.452c-5.421,0-9.638,4.216-9.638,9.638v247.567c0,5.421,4.216,9.638,9.638,9.638
	h152.395c5.421,0,9.638-4.216,9.638-9.638V9.939C481.882,4.518,477.666,0.301,472.245,0.301z"/>
<rect x="331.896" y="21.384" style="fill:#EBF0F3;" width="128.904" height="201.788"/>
<rect x="331.896" y="193.054" style="fill:#E1E6E9;" width="128.904" height="29.515"/>
<circle style="fill:#EBF0F3;" cx="396.348" cy="246.061" r="12.047"/>
<path style="fill:#E56353;" d="M355.388,198.475h-13.854c-1.807,0-3.012,1.205-3.012,3.012v13.854c0,1.807,1.205,3.012,3.012,3.012
	h13.854c1.807,0,3.012-1.205,3.012-3.012v-13.854C358.4,199.68,357.195,198.475,355.388,198.475z"/>
<path style="fill:#44C4A1;" d="M387.313,198.475h-13.854c-1.807,0-3.012,1.205-3.012,3.012v13.854c0,1.807,1.205,3.012,3.012,3.012
	h13.854c1.807,0,3.012-1.205,3.012-3.012v-13.854C390.325,199.68,389.12,198.475,387.313,198.475z"/>
<path style="fill:#27A2DB;" d="M419.238,198.475h-13.854c-1.807,0-3.012,1.205-3.012,3.012v13.854c0,1.807,1.205,3.012,3.012,3.012
	h13.854c1.807,0,3.012-1.205,3.012-3.012v-13.854C421.647,199.68,420.442,198.475,419.238,198.475z"/>
<path style="fill:#F6C358;" d="M450.56,198.475h-13.854c-1.807,0-3.012,1.205-3.012,3.012v13.854c0,1.807,1.205,3.012,3.012,3.012
	h13.854c1.807,0,3.012-1.205,3.012-3.012v-13.854C453.572,199.68,452.367,198.475,450.56,198.475z"/>
<ellipse style="fill:#E1E6E9;" cx="396.348" cy="148.48" rx="39.755" ry="4.216"/>
<ellipse style="fill:#44C4A1;" cx="396.348" cy="113.544" rx="39.755" ry="39.755"/>
<path style="fill:#FFFFFF;" d="M387.915,130.409L387.915,130.409c-1.205,0-1.807-0.602-1.807-1.205l-10.842-14.456
	c-0.602-1.205-0.602-3.012,0.602-3.614c1.205-0.602,3.012-0.602,3.614,0.602l9.035,12.047l25.299-25.901
	c1.205-1.205,2.409-1.205,3.614,0c1.205,1.205,1.205,2.409,0,3.614l-27.708,28.311C389.722,129.807,388.518,130.409,387.915,130.409
	z"/>
<g>
</g>
<g>
</g>
<g>
</g>
<g>
</g>
<g>
</g>
<g>
</g>
<g>
</g>
<g>
</g>
<g>
</g>
<g>
</g>
<g>
</g>
<g>
</g>
<g>
</g>
<g>
</g>
<g>
</g>
</svg>
